<?xml version="1.0" standalone="no"?><!DOCTYPE svg PUBLIC "-//W3C//DTD SVG 1.1//EN" "http://www.w3.org/Graphics/SVG/1.1/DTD/svg11.dtd"><svg t="1668008178699" class="icon" viewBox="0 0 1028 1024" version="1.1" xmlns="http://www.w3.org/2000/svg" p-id="19188" xmlns:xlink="http://www.w3.org/1999/xlink" width="32.125" height="32"><path d="M877.941694 347.925633c30.269602 32.270699 63.757836 61.346876 93.750179 93.882781 12.645485 13.718362 24.38686 27.183574 29.461931 44.711253a90.483328 90.483328 0 0 1 0.663014 47.098103 94.268535 94.268535 0 0 1-22.590695 41.974813c-15.888226 16.816446-31.969329 33.440015-48.050432 50.063584q-49.231803 50.871255-99.223058 100.958949c-66.771536 67.145235-134.218142 133.543073-201.399541 200.230225q-24.9896 24.808778-49.918926 49.689885c-3.809317 3.797262-6.9074 6.871236-11.608772 9.426854-4.062468 2.206028-8.064661 4.54466-12.187403 6.654249a65.590166 65.590166 0 0 1-25.31508 7.015894c-20.975352 1.627398-41.54084-3.266851-60.82852-11.283293-9.246031-3.833426-19.034529-7.751236-26.158915-14.863568l-25.086039-25.122203Q318.381995 847.319827 217.013183 746.589919l-25.399463-25.158367c-11.042197-10.921649-28.02741 6.0274-17.045487 17.045487l0.940274 0.940274a12.0548 12.0548 0 0 0 15.827952 0.940275c4.279454-3.411508 6.726578-10.656443 3.110139-15.550692-62.021945-83.780859-109.312925-177.555147-144.078968-275.657108q-14.682746-41.444402-26.641108-83.780859l-14.827403 14.827403c9.101374 2.302467 18.287131 4.19507 27.171518 7.23288l6.413154-23.253709c-8.13699-1.277809-16.744117-2.591782-24.290422-6.027399l-9.29425 22.036174c66.759482 17.997816 132.83184 39.889333 194.082277 72.413182 7.401647 3.929865 14.851513 0.192877 17.708501-7.23288 12.609321-32.656453 29.244944-65.216467 50.244406-94.268534a348.673031 348.673031 0 0 1 69.556195-70.725511c29.920013-22.458092 63.21537-40.480018 97.643879-54.933723 6.364934-2.676166 11.873978-4.82192 13.525485-12.259731 1.579179-7.148496-3.110138-14.212609-6.256441-20.348503-5.412605-10.560005-11.476169-20.734256-16.587404-31.463027-2.41096-4.954523 1.145206 2.917262-0.168768-0.361644-0.313425-0.795617-0.650959-1.579179-0.964384-2.41096q-1.374247-3.399454-2.71233-6.823017-3.869591-9.800552-7.606578-19.661378c-15.357815-40.323305-27.943026-81.562776-39.202209-123.21211L363.237905 23.820285a22.433983 22.433983 0 0 0 3.495892 1.036712q1.20548 0.421918-0.120548-0.096438a5.388496 5.388496 0 0 1-2.41096-1.735891l-3.098083-5.316167v0.120548l8.43836-14.827404 5.340276-0.132603q-1.301918-0.470137-0.241096 0t-0.120548-0.072328q-0.988494-0.458082-1.940823-0.988494l-9.34247 22.012065c0.831781 0.229041 4.014248 1.109042 3.857536 1.036712l9.294251-22.036174a13.86302 13.86302 0 0 1-3.857536-1.036713l-9.294251 22.036175c43.831252 14.284938 86.878943 31.258096 129.854304 47.893719 22.590695 8.73973 45.15728 17.587953 67.591263 26.725492q6.413154 2.615892 12.814252 5.267947l2.869043 1.20548 0.494246 0.204932 4.894249 2.097535c9.752333 4.21918 19.094803 9.185757 28.449328 14.248773a834.324752 834.324752 0 0 1 100.850455 64.240029q2.917262 2.169864 5.810414 4.375892c0.735343 0.554521 4.713427 4.134796 2.615891 1.989042l0.409864 0.397808c0.759452 0.771507 1.543014 1.518905 2.314521 2.278358l10.150142 9.981374 81.164967 79.887158c21.0959 20.746311 41.84221 41.902484 63.311809 62.275096 0.361644 0.337534 0.699178 0.687124 1.060822 1.036713 11.066306 10.84932 28.135903-6.147948 17.045487-17.045487l-54.005503-53.125503-85.058668-83.660311c-6.364934-6.268496-12.536992-12.850417-19.167132-18.853707-4.387947-3.978084-9.511237-7.365483-14.260828-10.849319q-11.72932-8.727675-23.78412-17.009323-25.061929-17.238364-51.341392-32.54796c-21.69864-12.693704-43.590156-24.314531-66.735372-33.970426-20.49316-8.546853-41.143032-16.707953-61.829069-24.796723-45.868513-17.937542-91.86963-35.790701-138.449376-51.835639q-5.340276-1.83233-10.704662-3.61644c-12.826307-4.183016-21.69864 15.996719-9.294251 22.036174a35.718372 35.718372 0 0 0 9.64384 3.459727c5.906852 1.012603 11.837813-1.060822 14.224664-6.979729 2.049316-5.09918 0.60274-12.512882-4.930413-15.056445a61.913452 61.913452 0 0 0-9.64384-3.459727c-12.898636-3.556166-21.69864 15.598911-9.294251 22.036174 4.82192 2.519453 9.969319 5.026852 15.550692 3.61644 6.60603-1.651508 9.716169-8.570963 8.43836-14.827404-1.422466-6.835072-8.872333-9.258086-14.682747-10.84932a12.175348 12.175348 0 0 0-14.791239 14.79124c13.899184 51.377557 30.028506 101.923333 50.147967 151.203354a205.534337 205.534337 0 0 0 9.921101 20.782475c2.483289 4.54466 5.050961 9.053155 7.498085 13.621924 1.20548 2.145754 2.266302 4.291509 3.33918 6.473427 0.530411 1.084932 1.060822 2.169864 1.567124 3.266851 0.313425 0.687124 1.458631 4.954523 1.024658 2.483289v-6.401099l0.446027-0.819726 7.23288-5.545208c-43.819197 17.973707-85.384147 40.35947-122.187451 70.496469a364.054955 364.054955 0 0 0-82.840585 97.366619 479.600212 479.600212 0 0 0-33.560562 70.737565l17.708501-7.23288c-63.022494-33.488234-131.071839-56.320025-199.808308-74.848252a12.0548 12.0548 0 0 0-14.224664 6.979729c-2.049316 5.09918-0.60274 12.512882 4.930413 15.056445a111.760049 111.760049 0 0 0 30.052616 8.43836c6.425208 1.000548 12.970965-1.639453 14.827404-8.43836s-2.242193-12.693704-8.43836-14.827404c-8.884387-3.073974-18.0822-4.966578-27.171518-7.232879-8.787949-2.230138-17.395076 5.822468-14.827404 14.827403 28.810972 101.260319 68.507428 199.977075 122.958958 290.267526q23.301928 38.57536 50.172077 74.920581l18.938091-14.610417-0.940275-0.940275-16.973158 17.069597q105.166074 104.081142 209.753517 208.801188l26.52056 26.52056 12.573156 12.573156c4.52055 4.52055 8.824113 9.884936 14.46576 12.898636 19.540831 10.330963 40.431799 19.28768 62.371535 22.819736 22.638914 3.61644 45.904678 2.627946 66.759481-7.606579 9.34247-4.592879 19.179187-9.366579 26.52056-16.732062q13.151787-13.139732 26.339738-26.267409c69.122222-68.869072 138.738691-137.30417 207.728311-206.366119q51.739201-51.835639 102.875661-104.189635 25.242751-25.929874 50.256461-52.08879c14.14028-14.791239 28.389054-29.015903 36.863578-47.978103 15.273431-34.283851 15.273431-75.342499-5.316167-107.649363-6.0274-9.34247-13.670143-17.575898-21.107954-25.749052-7.799456-8.570963-15.852062-16.87672-24.049326-25.086039-16.032884-16.044939-32.54796-31.559466-48.713446-47.495911q-11.946307-11.801649-23.470696-24.001107c-10.632333-11.343567-27.653711 5.72603-17.045487 17.045487z" fill="#2CA6E0" p-id="19189"></path><path d="M827.986604 750.543893l23.591243 23.591244 49.943036 49.882761 44.988513 44.976459c5.834523 5.834523 12.187403 11.45206 17.708501 17.575898q1.036713 1.20548 2.037261 2.41096l0.988494 1.20548c1.398357 1.699727-1.940823-2.627946-0.30137-0.373699a78.561131 78.561131 0 0 1 4.460276 6.738633q1.060822 1.83233 2.013151 3.724933 0.458082 0.916165 0.880001 1.83233c0.168767 0.361644 0.313425 0.723288 0.482192 1.072877 0.62685 1.301918-1.109042-2.820823-0.409864-0.952329a61.346876 61.346876 0 0 1 2.73644 9.221922c0.168767 0.843836 0.289315 1.699727 0.446028 2.543563 0.241096 1.277809-0.204932-1.735891-0.216987-1.579179a10.572059 10.572059 0 0 0 0.132603 1.313973 48.484405 48.484405 0 0 1 0.168767 5.42466q0 1.398357-0.144657 2.796713a7.377538 7.377538 0 0 0-0.144658 1.422467c0 0.060274 0.446028-2.71233 0.192877-1.410412-0.409863 2.097535-0.771507 4.183016-1.350138 6.244387-0.458082 1.639453-1.687672 3.61644-1.80822 5.304111 0.120548-1.675617 0.759452-1.675617 0.241096-0.566575-0.241096 0.518356-0.470137 1.036713-0.723288 1.555069q-0.771507 1.591234-1.627398 3.146303a71.65373 71.65373 0 0 1-4.014248 6.401099l-0.867946 1.20548c-0.204932 0.27726-1.50685 1.964932-0.60274 0.819726s-0.482192 0.566576-0.699178 0.831781q-0.855891 1.036713-1.747946 2.061371a58.284957 58.284957 0 0 1-7.570414 7.305209c-2.893152 2.314522-5.44877 4.942468-8.257538 7.353428l-1.651508 1.374247c-0.349589 0.289315-1.820275 1.410412 0 0-0.92822 0.699178-1.880549 1.386302-2.844933 2.06137a70.906333 70.906333 0 0 1-6.389043 3.94192q-1.362192 0.735343-2.748495 1.410412l-1.555069 0.723288c-2.097535 0.988494 0.482192-0.120548 0.566576-0.241096-0.819726 1.060822-4.737536 1.663562-6.0274 2.013151-1.820275 0.482192-3.61644 0.759452-5.496989 1.145206-1.555069 0.32548 2.627946-0.229041 1.060822-0.156712-0.470137 0-0.940274 0.096438-1.410411 0.132603q-1.567124 0.120548-3.134248 0.132602c-1.579179 0-3.158358 0-4.737537-0.180822a11.295347 11.295347 0 0 0-1.313973-0.132602c0.108493 0 3.194522 0.506302 1.20548 0.168767-0.843836-0.144658-1.699727-0.289315-2.543563-0.458083q-2.41096-0.506302-4.821919-1.20548a44.349609 44.349609 0 0 0-4.592879-1.639452c0.072329 0 2.905207 1.313973 1.20548 0.518356l-0.807672-0.361644q-1.060822-0.482192-2.097535-1.012603-2.013152-1.012603-3.94192-2.157809c-2.302467-1.362192-4.49644-2.893152-6.654249-4.472331-1.494795-1.084932 2.615892 2.10959 0.590685 0.446027l-1.20548-0.988493q-1.20548-1.048768-2.41096-2.157809c-1.940823-1.772056-3.736988-3.61644-5.496989-5.605482s-3.507947-3.61644-5.280002-5.328222l-38.973168-38.85262-51.558379-51.558379-32.933713-32.933713-1.675617-1.651507c-4.460276-4.460276-12.645485-4.82192-17.045487 0a12.271786 12.271786 0 0 0 0 17.045487l24.435079 24.435079 51.148516 51.148516 44.602759 44.602759c6.160003 6.160003 12.127129 13.091513 18.889872 18.588501 11.500279 9.330415 24.374805 15.67124 39.178099 17.50357 20.059187 2.483289 39.045497-6.786852 53.848791-19.61316 2.808768-2.41096 5.388496-5.026852 8.293702-7.353427a58.031806 58.031806 0 0 0 7.847675-7.775346c7.377538-8.631237 13.453157-18.190693 16.87672-29.076178 5.09918-16.189596 2.652056-33.331522-4.894249-48.291528-5.605482-11.114525-14.16439-19.468502-22.783571-28.099738l-37.840017-37.864127-52.619202-52.619201-34.0307-34.0307-1.711781-1.699727c-4.460276-4.460276-12.645485-4.82192-17.045487 0a12.271786 12.271786 0 0 0 0 17.045487zM780.490693 544.286268c0 6.762743-0.265206 13.513431-0.807672 20.252064q-0.361644 4.580824-0.90411 9.137538c-0.096438 0.819726-0.204932 1.651508-0.30137 2.471234-0.349589 2.905207 0.409863-2.808768 0 0.084384-0.241096 1.639453-0.482192 3.278906-0.735343 4.906303A248.750795 248.750795 0 0 1 768.761372 618.411232c-1.989042 6.135893-4.255344 12.151238-6.666304 18.0822-1.060822 2.627946 1.096987-2.519453 0 0.072329l-0.638904 1.470685q-0.964384 2.206028-1.964933 4.387948-2.001097 4.351783-4.158906 8.631236a250.52285 250.52285 0 0 1-19.28768 31.933165c-1.760001 2.471234-3.61644 4.882194-5.40055 7.329318-1.036713 1.410412 1.856439-2.350686 0.192877-0.25315l-1.470686 1.856439q-1.723836 2.157809-3.495892 4.279454-5.822468 6.967674-12.139183 13.51343-6.581921 6.810962-13.670143 13.127677-3.242741 2.893152-6.593976 5.665756-1.820275 1.518905-3.676714 2.989591l-1.20548 0.988493-1.20548 0.976439 0.554521-0.433973a260.383677 260.383677 0 0 1-31.197822 20.348502q-8.43836 4.616988-17.105761 8.583018l-3.61644 1.627398c-0.723288 0.313425-1.458631 0.699178-2.206028 0.952329 3.182467-1.060822 0.57863-0.253151-0.084384 0q-4.460276 1.820275-9.004935 3.471782a248.786959 248.786959 0 0 1-36.755085 10.27069q-4.436166 0.88-8.908497 1.603288c-1.627398 0.265206-3.266851 0.494247-4.906304 0.735343-2.893152 0.421918 2.820823-0.337534-0.084383 0l-2.471234 0.30137q-9.993429 1.20548-20.059187 1.53096a253.681208 253.681208 0 0 1-39.684401-1.591234 13.26028 13.26028 0 0 1-2.471234-0.313425c2.664111 0.90411 1.374247 0.180822 0.32548 0q-2.254248-0.32548-4.496441-0.675069-4.82192-0.783562-9.716169-1.76-9.64384-1.928768-19.022474-4.616989-8.944661-2.543563-17.672336-5.762194c-3.0137-1.109042-6.0274-2.302467-8.980826-3.507947-0.650959-0.265206-2.097535-0.638904 0.663014 0.289315-0.747398-0.253151-1.48274-0.638904-2.206029-0.952329q-2.567672-1.121096-5.111235-2.290412a250.149152 250.149152 0 0 1-32.656452-18.178638q-3.61644-2.41096-7.23288-4.918358a59.152903 59.152903 0 0 1-7.642743-5.641647c2.254248 2.254248 0.566576 0.433973 0 0l-1.85644-1.48274q-1.699727-1.362192-3.363289-2.748494-3.797262-3.158358-7.461921-6.473428a252.089974 252.089974 0 0 1-25.652614-26.79782q-1.20548-1.518905-2.495344-3.073974l-1.470685-1.856439c-1.735891-2.181919 1.627398 2.169864 0-0.060274-1.904658-2.531508-3.797262-5.063016-5.617537-7.654798q-5.484934-7.775346-10.367128-15.960555-4.689317-7.85973-8.800004-16.044939-1.964932-3.929865-3.797262-7.920003-1.000548-2.181919-1.964932-4.387947c-0.313425-0.723288-0.699178-1.458631-0.952329-2.206029 1.121096 3.375344 0-0.120548-0.32548-0.831781a248.702576 248.702576 0 0 1-11.440005-35.802755q-2.230138-9.390689-3.736988-18.926036a33.223028 33.223028 0 0 1-0.723288-4.906304c0 2.784659 0.204932 1.555069 0.108493 0.735343s-0.204932-1.651508-0.30137-2.471234q-0.57863-4.978632-0.964384-9.969319a254.356277 254.356277 0 0 1 0.060274-39.672347q0.397808-4.990687 1.000549-9.957264c0.060274-0.554521 0.132603-1.096987 0.204931-1.651508 0.349589-2.905207-0.409863 2.808768 0-0.084383 0.27726-1.904658 0.554521-3.821372 0.867946-5.72603q1.53096-9.306305 3.761098-18.492063a261.745869 261.745869 0 0 1 11.753429-36.104126c1.060822-2.627946-1.096987 2.519453 0-0.072329l0.95233-2.206028q0.964384-2.193974 1.976987-4.375892 2.013152-4.351783 4.183015-8.619182 4.158906-8.149045 8.908497-15.984665 4.930413-8.13699 10.463567-15.888226a54.957833 54.957833 0 0 1 5.183564-6.991784c-2.254248 2.254248-0.433973 0.566576 0 0l1.48274-1.856439q1.48274-1.844384 3.001645-3.61644a252.102029 252.102029 0 0 1 25.809327-26.641108q3.242741-2.893152 6.593975-5.665756 1.820275-1.518905 3.676714-2.98959l1.856439-1.470686q1.53096-1.20548-0.566575 0.433973l1.20548-0.964384q7.23288-5.509044 14.899732-10.475621a250.076823 250.076823 0 0 1 32.921659-18.070145q2.181919-0.988494 4.387947-1.940823c0.241096-0.108493 2.700275-1.012603 0.771507-0.337534s0.554521-0.216986 0.783562-0.313425q4.653153-1.904658 9.378634-3.61644 8.932607-3.242741 18.0822-5.786304t18.263022-4.339728q4.82192-0.964384 9.728223-1.723836l4.086577-0.614795c2.893152-0.421918-2.820823 0.337534 0.084384 0l3.303015-0.397808a253.801756 253.801756 0 0 1 39.624127-1.386302q9.64384 0.421918 19.191242 1.567124a13.26028 13.26028 0 0 1 2.471234 0.313425c-2.941371-1.000548-0.916165-0.120548 0.084383 0q2.41096 0.349589 4.906304 0.759452 4.82192 0.795617 9.704114 1.796165a248.76285 248.76285 0 0 1 36.646591 10.499731c2.760549 1.024658 5.496989 2.121645 8.233429 3.230686s-2.519453-1.096987 0.072328 0l2.206029 0.952329q2.193974 0.964384 4.375892 1.976987 8.691511 4.014248 17.045487 8.691511 7.968223 4.460276 15.598911 9.487128 3.809317 2.507398 7.51014 5.147399 1.772056 1.20548 3.520002 2.555618l1.904658 1.422466c0.747398 0.566576 3.61644 2.013152 0.699179 0.518357 2.41096 1.20548 4.689317 3.724933 6.774797 5.460824q3.61644 3.03781 7.160551 6.220277 7.040003 6.340825 13.58576 13.260279 6.268496 6.569866 12.0548 13.58576 1.50685 1.83233 2.98959 3.688769a11.837813 11.837813 0 0 1 1.470686 1.868494c-0.108493-0.216986-1.711782-2.242193-0.433973-0.554521 2.073426 2.73644 4.110687 5.496989 6.0274 8.305757a250.462576 250.462576 0 0 1 18.901926 31.655904q2.049316 4.110687 3.953974 8.293703 0.831781 1.820275 1.627398 3.61644c0.313425 0.723288 0.699178 1.458631 0.952329 2.206028-1.133151-3.375344 0 0.120548 0.32548 0.831781q3.556166 8.775894 6.437263 17.804939a249.04011 249.04011 0 0 1 8.73973 36.935907 33.247138 33.247138 0 0 1 0.723288 4.906304c0-3.327125-0.108493-0.759452 0 0.084383s0.204932 1.651508 0.289315 2.483289q0.518356 4.568769 0.867946 9.149593c0.494247 6.461373 0.735343 12.9348 0.735343 19.420283s5.533153 12.344115 12.054799 12.0548a12.259731 12.259731 0 0 0 12.0548-12.0548c-0.084384-53.945229-16.792336-107.625253-48.219199-151.577054a266.411077 266.411077 0 0 0-124.646631-95.232918c-51.389612-18.913981-109.071829-20.758365-161.69103-5.762195a262.710253 262.710253 0 0 0-152.782533 388.309213c27.183574 44.867965 68.013181 81.610995 115.894845 103.189087a266.157926 266.157926 0 0 0 161.883908 18.275076 262.481212 262.481212 0 0 0 136.797868-75.752362c36.46577-38.22577 61.346876-87.493737 69.399483-139.775404a276.380396 276.380396 0 0 0 3.363289-41.625224c0-6.30466-5.557263-12.344115-12.0548-12.0548a12.271786 12.271786 0 0 0-12.054799 12.0548z" fill="#2CA6E0" p-id="19190"></path><path d="M412.361215 429.343751a166.705827 166.705827 0 0 0-9.981375 17.141926 263.590253 263.590253 0 0 0-18.648775 45.48276 210.404477 210.404477 0 0 0-9.487127 63.299754 166.283909 166.283909 0 0 0 17.12987 71.93099c13.766581 27.72604 35.453166 50.630159 60.093177 69.025784q5.569318 4.158906 11.355622 8.028497c6.461373 4.339728 12.500827-6.099729 6.0274-10.403292-25.31508-16.973158-47.953994-38.406592-63.058658-65.095919a152.589656 152.589656 0 0 1-19.28768-67.048797 186.849398 186.849398 0 0 1 1.313973-32.330973c0.120548-1.012603-0.060274 0.373699 0.132603-0.976439l0.289315-1.989042q0.30137-1.976987 0.638905-3.953975 0.638904-3.749043 1.410411-7.473975 1.494795-7.23288 3.459728-14.284938a247.123397 247.123397 0 0 1 8.703565-25.628505q0.506302-1.20548 1.024658-2.519453l0.60274-1.446576c0.265206-0.638904-0.168767 0.397808-0.180822 0.421918l0.421918-1.000548q1.121096-2.627946 2.302467-5.219729 2.145754-4.725482 4.472331-9.354524c3.507947-6.967674 7.642743-13.489321 11.524388-20.227954 0-0.096438 0.120548-0.180822 0.180822-0.277261 1.844384-2.68822 0.506302-6.690414-2.157809-8.245483a6.147948 6.147948 0 0 0-8.245483 2.157809z" fill="#2CA6E0" p-id="19191"></path></svg>