<?xml version="1.0" standalone="no"?><!DOCTYPE svg PUBLIC "-//W3C//DTD SVG 1.1//EN" "http://www.w3.org/Graphics/SVG/1.1/DTD/svg11.dtd"><svg t="1668002800893" class="icon" viewBox="0 0 1024 1024" version="1.1" xmlns="http://www.w3.org/2000/svg" p-id="6007" xmlns:xlink="http://www.w3.org/1999/xlink" width="32" height="32"><path d="M738.8 843L419.3 642.3l319.4-194.8V843z m0 0" fill="#CEE8FA" p-id="6008"></path><path d="M747.8 132.8c-13.3-7.4-29.6-7-42.5 1.1l-232.7 145 27.8 49.8 216.8-135.1V819L215.4 506.2l118.2-73.6-27.8-49.8-140.9 87.8c-12.3 7.7-19.7 21.1-19.7 35.6s7.5 27.9 19.7 35.6l540.5 336.8c6.7 4.1 14.3 6.3 22.2 6.3 11.1 0 21.8-4.4 29.6-12.3 7.9-7.9 12.3-18.5 12.3-29.7V169.5c-0.1-15.3-8.4-29.3-21.7-36.7z" fill="#2197EF" p-id="6009"></path><path d="M320 407.9m-28.6 0a28.6 28.6 0 1 0 57.2 0 28.6 28.6 0 1 0-57.2 0Z" fill="#2197EF" p-id="6010"></path><path d="M486.6 303.9m-28.6 0a28.6 28.6 0 1 0 57.2 0 28.6 28.6 0 1 0-57.2 0Z" fill="#2197EF" p-id="6011"></path></svg>